<svg width="24" height="24" viewBox="0 0 24 24" fill="none" xmlns="http://www.w3.org/2000/svg">
<path fill-rule="evenodd" clip-rule="evenodd" d="M9.4265 4.55804C5.6615 6.97604 3.56983 9.79054 3.1515 13.0015C2.5 18 6.96999 20.4465 9.23499 18.2485C11.5 16.0505 10.1425 13.26 8.50249 12.497C6.86249 11.734 5.8595 12 6.0345 10.9805C6.2095 9.96104 8.5425 7.13554 10.5925 5.81954C10.665 5.75769 10.7113 5.67055 10.7219 5.57581C10.7325 5.48108 10.7066 5.38587 10.6495 5.30954L10.1425 4.65004C9.9225 4.36404 9.7115 4.37503 9.4265 4.55753M19.3395 4.55804C15.5745 6.97604 13.4828 9.79054 13.0645 13.0015C12.4125 18 16.8825 20.4465 19.1475 18.2485C21.4125 16.0505 20.055 13.26 18.4145 12.497C16.774 11.734 15.7715 12 15.9465 10.9805C16.1215 9.96104 18.455 7.13554 20.505 5.81954C20.5775 5.75762 20.6236 5.67044 20.6341 5.57571C20.6446 5.48098 20.6187 5.38581 20.5615 5.30954L20.055 4.65004C19.835 4.36404 19.624 4.37503 19.3395 4.55753" fill="black"/>
</svg>
